# xmcd CD database file
#
# Track frame offsets:
#	150
#	12674
#	28473
#	42287
#	55765
#	70697
#	86146
#	99632
#	113319
#	125188
#	138229
#	153295
#	166630
#	180885
#	194378
#	208002
#	220321
#	235164
#	248630
#	263540
#
# Disc length: 3692 seconds
#
# Revision: 0
# Processed by: cddbd v1.5.2PL0 Copyright (c) Steve Scherf et al.
# Submitted via: CDex 1.70beta2
#
DISCID=0e0e6a14
DTITLE=Duke Ellington - Swing! presents Duke Ellington's Best (disk 2)
DYEAR=1900
DGENRE=Jazz
TTITLE0=Mood Indigo
TTITLE1=Solitude
TTITLE2=Solitude
TTITLE3=Chelsea Bridge
TTITLE4=Concerto For Cootie
TTITLE5=What Am I Here For ?
TTITLE6=Prelude To A Kiss
TTITLE7=In A Sentimental Mood
TTITLE8=Sophisticated Lady
TTITLE9=Chocolate Shake
TTITLE10=I Got It Bad (And That Ain't Good)
TTITLE11=Jump For Joy
TTITLE12=I'm Beginning To See The Light
TTITLE13=Kissing Bug
TTITLE14=I Let A Song Go Out Of My Heart
TTITLE15=The Wonder Of You
TTITLE16=Just Squeeze Me
TTITLE17=Transblucency
TTITLE18=Lover Man
TTITLE19=St. Louis Blues
EXTD=
EXTT0=
EXTT1=
EXTT2=
EXTT3=
EXTT4=
EXTT5=
EXTT6=
EXTT7=
EXTT8=
EXTT9=
EXTT10=
EXTT11=
EXTT12=
EXTT13=
EXTT14=
EXTT15=
EXTT16=
EXTT17=
EXTT18=
EXTT19=
PLAYORDER=
